<?xml version="1.0" encoding="UTF-8" standalone="no"?>
<svg
   width="568.54163"
   height="815"
   viewBox="0 0 568.54163 815"
   fill="none"
   version="1.1"
   id="svg4"
   xmlns="http://www.w3.org/2000/svg"
   xmlns:svg="http://www.w3.org/2000/svg">
  <defs
     id="defs4" />
  <g
     opacity="0.6"
     id="g4"
     transform="rotate(90,250.637,250.637)">
    <path
       d="M 814.975,-67.0771 H 620.204 V 492.29 h 194.771 z"
       fill="#c3f8c7"
       id="path1" />
    <path
       d="M 504.716,-67.2676 H 309.635 V 488.487 h 195.081 z"
       fill="#c3f8c7"
       id="path2" />
    <path
       d="M 0,501.274 V 282.259 C 82.2774,282.143 161.15,245.267 219.292,179.73 277.435,114.194 310.093,25.3569 310.093,-67.2676 H 504.864 C 504.761,83.4512 451.543,227.967 356.889,334.558 262.236,441.15 133.882,501.109 0,501.274 Z"
       fill="#9ef0a5"
       id="path3" />
    <path
       d="M 310.08,501.274 V 282.259 c 82.287,-0.1 161.174,-36.968 219.328,-102.507 58.155,-65.538 90.82,-154.3843 90.82,-247.0196 H 815 C 814.882,83.4569 761.651,227.972 666.989,334.562 572.327,441.152 443.967,501.109 310.08,501.274 Z"
       fill="#9ef0a5"
       id="path4" />
  </g>
</svg>
