<?xml version="1.0" encoding="UTF-8" standalone="no"?>
<svg
   width="465.452"
   height="934"
   viewBox="0 0 465.452 934"
   fill="none"
   version="1.1"
   id="svg6"
   xmlns="http://www.w3.org/2000/svg"
   xmlns:svg="http://www.w3.org/2000/svg">
  <defs
     id="defs6" />
  <path
     d="M 465.452,-1.3183594e-5 V 241.03199 L 325.8165,331.41899 1.3803508e-8,241.03199 V -1.3183594e-5 L 325.8165,90.387087 Z"
     fill="#75bee9"
     id="path1" />
  <path
     d="M 465.452,-1.3183594e-5 V 241.03199 L 325.8165,331.41899 1.3803508e-8,241.03199 Z"
     fill="#0072bc"
     id="path2" />
  <path
     d="m 465.452,301.28999 v 241.032 L 325.8165,632.70899 1.3803508e-8,542.32199 v -241.032 L 325.8165,391.67699 Z"
     fill="#75bee9"
     id="path3" />
  <path
     d="m 465.452,602.58099 v 241.032 L 325.8165,933.99999 1.3803508e-8,843.61299 v -241.032 L 325.8165,692.96799 Z"
     fill="#75bee9"
     id="path4" />
  <path
     d="m 465.452,301.28999 v 241.032 L 325.8165,632.70899 1.3803508e-8,542.32199 Z"
     fill="#0072bc"
     id="path5" />
  <path
     d="m 465.452,602.58099 v 241.032 L 325.8165,933.99999 1.3803508e-8,843.61299 Z"
     fill="#0072bc"
     id="path6" />
</svg>
