<svg width="70" height="70" viewBox="0 0 70 70" fill="none" xmlns="http://www.w3.org/2000/svg">
<path d="M20.7408 33.6873C20.7408 29.7722 24.0124 26.8708 27.8203 26.8708H42.7301C46.6989 26.8708 49.7559 29.7185 49.7559 33.6873" stroke="black"/>
<path d="M35.2219 8.27783C39.3972 8.27791 42.8205 11.7012 42.8205 15.8765C42.8204 20.0517 39.3971 23.475 35.2219 23.4751C31.054 23.4751 27.6769 20.0592 27.6232 15.8765C27.6232 11.7011 31.0465 8.27783 35.2219 8.27783Z" stroke="black"/>
<path d="M15.1046 32.4756H54.8956C55.7642 32.4758 56.4511 33.2115 56.3917 34.0781L54.8077 57.1855H15.1925L13.6085 34.0781C13.5491 33.2114 14.2359 32.4757 15.1046 32.4756Z" stroke="black"/>
<path d="M56.5372 56.9612V59.3586C56.537 60.1869 55.8655 60.8586 55.0372 60.8586H14.963C14.1347 60.8586 13.4632 60.1869 13.463 59.3586V56.9612H56.5372Z" stroke="black"/>
<ellipse cx="35.0001" cy="45.3705" rx="5.18519" ry="5.18518" fill="url(#paint0_linear_717_12424)"/>
<defs>
<linearGradient id="paint0_linear_717_12424" x1="29.8149" y1="45.3705" x2="40.1756" y2="45.3705" gradientUnits="userSpaceOnUse">
<stop stop-color="#16FF00"/>
<stop offset="1" stop-color="#4DFFC9"/>
<stop offset="1" stop-color="#4DFFC9"/>
</linearGradient>
</defs>
</svg>
