<svg width="31" height="21" viewBox="0 0 31 21" fill="none" xmlns="http://www.w3.org/2000/svg">
<path d="M0.501953 0.614258H8.37233L11.3237 6.51704L8.37233 20.2902H0.501953L3.45335 6.51704L0.501953 0.614258Z" fill="#D9D9D9"/>
<path d="M0.501953 0.614258H8.37233L11.3237 6.51704L8.37233 20.2902L0.501953 0.614258Z" fill="#ADAFB2"/>
<path d="M10.3398 0.614258H18.2102L21.1616 6.51704L18.2102 20.2902H10.3398L13.2912 6.51704L10.3398 0.614258Z" fill="#75BEE9"/>
<path d="M20.1797 0.614258H28.0501L31.0015 6.51704L28.0501 20.2902H20.1797L23.1311 6.51704L20.1797 0.614258Z" fill="#F37164"/>
<path d="M10.3398 0.614258H18.2102L21.1616 6.51704L18.2102 20.2902L10.3398 0.614258Z" fill="#0072BC"/>
<path d="M20.1797 0.614258H28.0501L31.0015 6.51704L28.0501 20.2902L20.1797 0.614258Z" fill="#ED1B35"/>
</svg>
