<svg width="866" height="304" viewBox="0 0 866 304" fill="none" xmlns="http://www.w3.org/2000/svg">
<path d="M0 -98H241.032L331.419 41.6355L241.032 367.452H0L90.3871 41.6355L0 -98Z" fill="#75BEE9"/>
<path d="M0 -98H241.032L331.419 41.6355L241.032 367.452L0 -98Z" fill="#0072BC"/>
<path d="M301.29 -98H542.322L632.709 41.6355L542.322 367.452H301.29L391.677 41.6355L301.29 -98Z" fill="#75BEE9"/>
<path d="M602.581 -98H843.613L934 41.6355L843.613 367.452H602.581L692.968 41.6355L602.581 -98Z" fill="#75BEE9"/>
<path d="M301.29 -98H542.322L632.709 41.6355L542.322 367.452L301.29 -98Z" fill="#0072BC"/>
<path d="M602.581 -98H843.613L934 41.6355L843.613 367.452L602.581 -98Z" fill="#0072BC"/>
</svg>
