<svg width="70" height="70" viewBox="0 0 70 70" fill="none" xmlns="http://www.w3.org/2000/svg">
<path d="M38.6205 25.1037C48.6546 25.161 58.8268 22.0378 64.0836 11.5649" stroke="#16FF00" stroke-width="2.83986"/>
<path d="M53.4653 13.1628L64.0767 9.92951L67.2674 20.5537" stroke="#16FF00" stroke-width="2.83986"/>
<rect x="37.4421" y="32.8838" width="7.39535" height="11.093" fill="#16FF00"/>
<rect x="47.3026" y="29.186" width="7.39535" height="14.7907" fill="#16FF00"/>
<rect x="57.163" y="26.7209" width="7.39535" height="17.2558" fill="#16FF00"/>
<path d="M20.8026 16.1279C25.6186 16.1279 29.5467 20.1482 29.5467 25.1367C29.5466 27.6492 28.5494 30.7233 26.9227 33.167C25.286 35.6257 23.1067 37.3145 20.8026 37.3145C18.4984 37.3144 16.3191 35.6257 14.6824 33.167C13.0557 30.7233 12.0585 27.6492 12.0584 25.1367C12.0584 20.1482 15.9865 16.128 20.8026 16.1279Z" stroke="black"/>
<path d="M27.9442 39.5466C32.9135 39.5468 36.942 43.5753 36.9422 48.5447V58.24C36.9419 58.936 36.3775 59.4998 35.6815 59.4998H4.69122C3.99517 59.4998 3.43074 58.936 3.43048 58.24V48.5447L3.4422 48.0818C3.68326 43.3275 7.61436 39.5468 12.4285 39.5466C12.9886 39.5466 13.5197 39.797 13.8758 40.2292L19.8006 47.4236L20.1863 47.8923L20.5721 47.4236L26.4969 40.2292C26.853 39.797 27.3841 39.5466 27.9442 39.5466Z" stroke="black"/>
</svg>
