<svg width="72" height="70" viewBox="0 0 72 70" fill="none" xmlns="http://www.w3.org/2000/svg">
<path d="M63.8139 34.6492L71.1333 60.0001H0.866638L11.1139 31.6667H58.6903" stroke="black"/>
<path fill-rule="evenodd" clip-rule="evenodd" d="M36.5666 38.4667C36.5666 38.4667 48.4666 29.9161 48.4666 21.201C48.4666 14.4626 43.1388 9 36.5666 9C29.9945 9 24.6666 14.4626 24.6666 21.201C24.6666 29.9161 36.5666 38.4667 36.5666 38.4667ZM36.5666 26.4301C39.3833 26.4301 41.6666 24.089 41.6666 21.201C41.6666 18.3131 39.3833 15.972 36.5666 15.972C33.75 15.972 31.4666 18.3131 31.4666 21.201C31.4666 24.089 33.75 26.4301 36.5666 26.4301Z" fill="url(#paint0_linear_717_12511)"/>
<path d="M17.2995 35.5667C21.0829 35.5667 24.1667 38.6959 24.1667 42.5754C24.1665 45.0525 22.4474 47.585 20.6169 49.5588C19.7143 50.5321 18.8099 51.3428 18.1306 51.9104C17.7913 52.1939 17.5087 52.416 17.3122 52.5667C17.3081 52.5698 17.3036 52.5723 17.2995 52.5754C17.2957 52.5725 17.2917 52.5696 17.2878 52.5667C17.0913 52.416 16.8087 52.1939 16.4694 51.9104C15.7901 51.3428 14.8857 50.5321 13.9831 49.5588C12.1526 47.585 10.4335 45.0525 10.4333 42.5754C10.4333 38.696 13.5163 35.5669 17.2995 35.5667Z" stroke="black"/>
<path d="M44.4995 40.1001C48.2829 40.1001 51.3667 43.2293 51.3667 47.1089C51.3665 49.5859 49.6474 52.1184 47.8169 54.0923C46.9143 55.0656 46.0099 55.8762 45.3306 56.4438C44.9913 56.7274 44.7087 56.9495 44.5122 57.1001C44.5081 57.1033 44.5036 57.1058 44.4995 57.1089C44.4957 57.1059 44.4917 57.1031 44.4878 57.1001C44.2913 56.9495 44.0087 56.7274 43.6694 56.4438C42.9901 55.8762 42.0857 55.0656 41.1831 54.0923C39.3526 52.1184 37.6335 49.5859 37.6333 47.1089C37.6333 43.2295 40.7163 40.1003 44.4995 40.1001Z" stroke="black"/>
<path d="M62.6329 24.2334C65.1278 24.2334 67.2333 26.4828 67.2335 29.3643C67.2335 31.1856 66.0646 33.0594 64.8038 34.5322C64.1837 35.2567 63.5618 35.8604 63.0948 36.2832C62.9147 36.4462 62.7569 36.5807 62.6329 36.6855C62.509 36.5808 62.3519 36.446 62.172 36.2832C61.705 35.8604 61.0832 35.2567 60.463 34.5322C59.2022 33.0594 58.0333 31.1856 58.0333 29.3643C58.0335 26.4829 60.1382 24.2336 62.6329 24.2334Z" stroke="black"/>
<path d="M6.53331 45.2666H11.0666" stroke="black"/>
<path d="M23.5333 46.3999V59.9999" stroke="black"/>
<path d="M39.4 50.9333H34.8666V60" stroke="black"/>
<path d="M49.6 50.9333H67.7333" stroke="black"/>
<path d="M66.6 41.8667H52.2444L50.7333 32.8" stroke="black"/>
<circle cx="17.3" cy="42.4334" r="2.33333" stroke="black"/>
<circle cx="44.5" cy="46.9666" r="2.33333" stroke="black"/>
<circle cx="62.0666" cy="29.4" r="1.76667" stroke="black"/>
<defs>
<linearGradient id="paint0_linear_717_12511" x1="24.6666" y1="23.7333" x2="48.4446" y2="23.7333" gradientUnits="userSpaceOnUse">
<stop stop-color="#16FF00"/>
<stop offset="1" stop-color="#4DFFC9"/>
<stop offset="1" stop-color="#4DFFC9"/>
</linearGradient>
</defs>
</svg>
