<svg width="166" height="166" viewBox="0 0 166 166" fill="none" xmlns="http://www.w3.org/2000/svg">
<g filter="url(#filter0_d_4684_872)">
<rect x="36" y="32" width="94" height="94" rx="47" fill="white"/>
<path fill-rule="evenodd" clip-rule="evenodd" d="M97.4467 84.4207L96.9265 88.5415L89.7157 87.6311L90.2338 83.5271C88.8385 82.8916 87.6016 81.972 86.5237 80.7676L82.6597 82.4334L79.7255 75.8951L83.6072 74.232C83.565 73.8244 83.5479 73.4033 83.5557 72.9679C83.5658 72.7047 83.5812 72.4422 83.6025 72.1811C83.6211 72.0339 83.6403 71.8818 83.6603 71.7229C83.7702 70.8529 83.9625 70.0267 84.2368 69.2457L80.8881 66.6871L85.3554 61.083L88.7189 63.6616C90.0479 62.7841 91.4618 62.2047 92.9615 61.9229L93.4796 57.819L100.69 58.7294L100.172 62.8333C100.946 63.1955 101.675 63.6438 102.357 64.1774C102.559 64.3407 102.76 64.5095 102.96 64.6844C103.264 64.9643 103.561 65.2599 103.85 65.572L107.766 63.9125L110.7 70.4511L106.801 72.1127C106.874 72.9258 106.856 73.7676 106.746 74.6376C106.637 75.4973 106.447 76.3111 106.174 77.0812L109.538 79.6591L105.07 85.2629L101.707 82.6846C100.376 83.5731 98.9565 84.152 97.4467 84.4207ZM96.2467 78.4807C96.977 78.3544 97.6619 78.079 98.301 77.6544C98.4032 77.5873 98.4997 77.5195 98.5905 77.4502C99.5102 76.7507 100.13 75.8755 100.45 74.8247C100.548 74.5162 100.617 74.1971 100.659 73.869C100.677 73.7224 100.689 73.5806 100.695 73.4435C100.708 73.2496 100.709 73.0542 100.699 72.858C100.694 72.8004 100.691 72.7366 100.688 72.6673C100.603 71.6684 100.222 70.742 99.5454 69.8869C99.4747 69.7972 99.3981 69.7075 99.3158 69.6171C98.7922 69.0339 98.1924 68.59 97.5164 68.2868C97.0177 68.0631 96.4741 67.9137 95.8862 67.8395C95.8052 67.8293 95.7189 67.8184 95.6267 67.8068C95.1397 67.7682 94.6627 67.7887 94.196 67.8676C93.4543 67.9918 92.7571 68.2719 92.105 68.7067C92.0144 68.7753 91.9237 68.8439 91.833 68.9131C91.4574 69.1984 91.1305 69.5134 90.8529 69.8576C90.4516 70.3463 90.159 70.901 89.975 71.5208C89.8777 71.8307 89.8074 72.1545 89.7646 72.4936C89.7217 72.8333 89.7044 73.1582 89.7117 73.4689C89.772 74.5677 90.1607 75.5702 90.8781 76.4764C90.9487 76.5661 91.0203 76.6489 91.0923 76.7276C91.1024 76.74 91.1126 76.7524 91.1226 76.7655C91.2971 76.9601 91.4742 77.137 91.6526 77.298C92.0352 77.6101 92.4422 77.8626 92.8747 78.055C93.3834 78.2918 93.9376 78.4474 94.5373 78.5231C95.1367 78.5988 95.7066 78.5851 96.2467 78.4807Z" fill="url(#paint0_linear_4684_872)"/>
<path d="M71.4575 74.1053C71.9392 73.919 72.371 73.6743 72.7468 73.367C73.2517 72.9686 73.66 72.4761 73.9701 71.8951C74.0197 71.8031 74.0659 71.7106 74.1079 71.6177C74.5188 70.7121 74.6353 69.7807 74.4465 68.8378L74.4474 68.8375C74.3945 68.5602 74.3153 68.2875 74.2121 68.0207C74.1679 67.9062 74.1198 67.7959 74.0685 67.6898L74.0682 67.6889C73.9972 67.5337 73.9173 67.3822 73.8278 67.2353L73.8205 67.2245C73.8001 67.1927 73.7775 67.1552 73.7522 67.1128L73.7468 67.1043L73.7411 67.095C73.3171 66.4466 72.7417 65.9415 72.0287 65.5773L71.7154 65.4304C71.6218 65.3899 71.5255 65.3526 71.4269 65.3179C70.7933 65.0908 70.1506 64.9976 69.5037 65.0449C69.0273 65.0797 68.5522 65.1898 68.0806 65.3721L67.8802 65.4496L67.8697 65.4548C67.4865 65.6239 67.1332 65.8349 66.8103 66.0863L66.8091 66.0858C66.2896 66.4893 65.8716 66.9937 65.5545 67.5907L65.5471 67.604L65.5409 67.6179C65.5044 67.6978 65.4675 67.7789 65.4306 67.8606L65.4319 67.8611C65.2648 68.2287 65.1434 68.6025 65.0727 68.9821L65.074 68.9827C64.9681 69.5278 64.9723 70.0779 65.0865 70.629C65.1401 70.9069 65.22 71.1826 65.326 71.4567C65.4302 71.7262 65.5486 71.9776 65.6813 72.2104L65.685 72.2173L65.6896 72.2239C66.1297 72.9424 66.7334 73.4985 67.4898 73.8899L67.824 74.0476C67.9143 74.0867 68.0014 74.1201 68.0854 74.1496L68.1082 74.1597L68.1255 74.1666L68.4339 74.2682C68.5354 74.2988 68.6357 74.3265 68.7349 74.3508L68.7599 74.3558C69.1749 74.4354 69.588 74.4613 69.9982 74.4308L69.9973 74.4312C70.4882 74.4022 70.9755 74.2917 71.4575 74.1053ZM69.0103 61.3564L69.3742 61.3361C69.9966 61.3007 70.62 61.3359 71.2444 61.4422C71.4317 61.4774 71.62 61.517 71.8092 61.5599C72.1072 61.6357 72.407 61.7238 72.7069 61.8263L73.0397 61.9395L73.2595 61.6661L75.0188 59.4707L78.6421 62.2505L76.906 64.4243L76.6798 64.7086L76.88 65.0123C77.2083 65.509 77.4898 66.0588 77.7234 66.6629C77.954 67.2592 78.1141 67.8513 78.2056 68.4407L78.2615 68.7992L78.6201 68.8573L81.3675 69.2985L80.5564 73.7919L77.791 73.3472L77.438 73.29L77.2703 73.6061C76.7192 74.6456 76.0055 75.5103 75.1291 76.2057L74.8407 76.4345L75.9564 79.32L71.6245 80.9951L70.5136 78.1223L70.1463 78.147C69.031 78.2221 67.9156 78.0598 66.7965 77.6561L66.4584 77.5345L66.2346 77.8168L64.514 79.993L60.8923 77.2147L62.6157 75.0458L62.8445 74.7574L62.6378 74.4531C62.5543 74.3304 62.4731 74.2029 62.3947 74.0707L62.1669 73.6604L61.9312 73.1537L61.8019 72.8194C61.5684 72.2153 61.4054 71.6138 61.3108 71.0158L61.254 70.6577L60.8948 70.6007L58.1679 70.1663L58.9784 65.6742L61.7425 66.1184L62.0942 66.175L62.2622 65.8619C62.8171 64.8282 63.5282 63.963 64.3955 63.2613L64.6787 63.0324L63.569 60.1623L67.9009 58.4873L69.0103 61.3564Z" stroke="black"/>
<path d="M80.5492 97.1861C80.8738 97.0817 81.1762 96.9466 81.4535 96.7793L81.7141 96.6073C82.1825 96.2812 82.5698 95.8662 82.8738 95.3684C82.9221 95.2901 82.9679 95.2108 83.0097 95.1308C83.4173 94.3549 83.5685 93.5394 83.4501 92.6984C83.4176 92.4514 83.3618 92.207 83.2845 91.9669C83.2516 91.8645 83.2152 91.7654 83.1756 91.6696L83.1753 91.6687C83.1479 91.5984 83.1182 91.5289 83.0867 91.4602L82.986 91.2556L82.9805 91.245C82.9648 91.2173 82.947 91.1847 82.9275 91.1472L82.9224 91.1376L82.9175 91.1289C82.5277 90.4502 81.9538 89.9278 81.2172 89.5585C81.1377 89.5184 81.0556 89.4816 80.972 89.4466L80.9717 89.4456C80.4252 89.2131 79.8626 89.098 79.289 89.1068C78.8672 89.1131 78.4432 89.186 78.0196 89.3222L77.8299 89.3832C77.4841 89.5126 77.1626 89.6812 76.8654 89.8864C76.3869 90.2157 75.9922 90.6378 75.6829 91.1469L75.6747 91.1598L75.6678 91.1733C75.6322 91.2408 75.5968 91.31 75.5606 91.3791C75.3952 91.6936 75.2695 92.0166 75.1879 92.3474L75.1891 92.348C75.0675 92.8257 75.0432 93.3137 75.1169 93.8074L75.1181 93.8081C75.1513 94.0527 75.2056 94.2969 75.284 94.5405C75.3617 94.7822 75.4533 95.0091 75.5582 95.2207L75.5615 95.2278L75.5658 95.2347C75.9172 95.8909 76.4217 96.4118 77.0679 96.7949L77.3528 96.9505C77.4251 96.9869 77.4955 97.0175 77.5631 97.046L77.5621 97.0463C77.572 97.0511 77.5757 97.0525 77.5778 97.0536L77.595 97.0624L77.6128 97.07L77.8776 97.1756C77.9652 97.2076 78.0524 97.2357 78.1383 97.262L78.15 97.2665L78.162 97.2688L78.4347 97.3288C78.7056 97.3791 78.9771 97.4026 79.249 97.3982L79.2481 97.3985C79.6822 97.3979 80.1164 97.3253 80.5492 97.1861ZM78.9988 86.0169L79.3629 86.0167C79.8983 86.0172 80.4314 86.0781 80.9617 86.2L80.9607 86.2003C81.1235 86.2407 81.2874 86.2844 81.4513 86.3318C81.7016 86.4113 81.952 86.5018 82.2026 86.6041L82.5283 86.7363L82.7633 86.475L84.3557 84.7092L87.2571 87.2135L85.6886 88.9613L85.4455 89.2324L85.6284 89.5459C85.8855 89.9884 86.0997 90.4752 86.2706 91.0064C86.4392 91.5305 86.5481 92.0475 86.5973 92.558L86.6315 92.9194L86.9871 92.9978L89.2804 93.5034L88.3833 97.2297L86.0718 96.7186L85.7221 96.6423L85.5363 96.9483C85.0111 97.8142 84.355 98.5207 83.5683 99.074L83.2671 99.2858L84.0844 101.826L80.3714 103.021L79.5577 100.491L79.1895 100.495C78.2287 100.504 77.2792 100.31 76.3375 99.9074L76.0066 99.7656L75.7669 100.035L74.2093 101.787L71.31 99.2831L72.8673 97.5389L73.1126 97.2651L72.9239 96.9493C72.8584 96.84 72.7951 96.7264 72.7344 96.6091L72.5588 96.245L72.3756 95.7808L72.2868 95.5047C72.116 94.9737 72.0053 94.4485 71.9538 93.9304L71.9187 93.5693L71.5634 93.4918L69.2867 92.9932L70.1832 89.2682L72.4944 89.7783L72.8423 89.8551L73.0286 89.5511C73.557 88.6902 74.2104 87.9829 74.9898 87.4235L75.2858 87.2113L74.4733 84.6855L78.1863 83.4911L78.9988 86.0169Z" stroke="black"/>
</g>
<defs>
<filter id="filter0_d_4684_872" x="0" y="0" width="166" height="166" filterUnits="userSpaceOnUse" color-interpolation-filters="sRGB">
<feFlood flood-opacity="0" result="BackgroundImageFix"/>
<feColorMatrix in="SourceAlpha" type="matrix" values="0 0 0 0 0 0 0 0 0 0 0 0 0 0 0 0 0 0 127 0" result="hardAlpha"/>
<feOffset dy="4"/>
<feGaussianBlur stdDeviation="18"/>
<feColorMatrix type="matrix" values="0 0 0 0 0 0 0 0 0 0 0 0 0 0 0 0 0 0 0.08 0"/>
<feBlend mode="normal" in2="BackgroundImageFix" result="effect1_dropShadow_4684_872"/>
<feBlend mode="normal" in="SourceGraphic" in2="effect1_dropShadow_4684_872" result="shape"/>
</filter>
<linearGradient id="paint0_linear_4684_872" x1="110.118" y1="75.0633" x2="80.3334" y2="71.3028" gradientUnits="userSpaceOnUse">
<stop stop-color="#16FF00"/>
<stop offset="1" stop-color="#4DFFC9"/>
<stop offset="1" stop-color="#4DFFC9"/>
</linearGradient>
</defs>
</svg>
