<svg width="54" height="47" viewBox="0 0 54 47" fill="none" xmlns="http://www.w3.org/2000/svg">
<path fill-rule="evenodd" clip-rule="evenodd" d="M40.4467 27.4207L39.9265 31.5415L32.7157 30.6311L33.2338 26.5271C31.8385 25.8916 30.6016 24.972 29.5237 23.7676L25.6597 25.4334L22.7255 18.8951L26.6072 17.232C26.565 16.8244 26.5479 16.4033 26.5557 15.9679C26.5658 15.7047 26.5812 15.4422 26.6025 15.1811C26.6211 15.0339 26.6403 14.8818 26.6603 14.7229C26.7702 13.8529 26.9625 13.0267 27.2368 12.2457L23.8881 9.68708L28.3554 4.08298L31.7189 6.66159C33.0479 5.78409 34.4618 5.20471 35.9615 4.92291L36.4796 0.818952L43.6904 1.72936L43.1723 5.83333C43.9463 6.19551 44.6746 6.64379 45.3567 7.1774C45.5586 7.34068 45.7602 7.50949 45.9602 7.68438C46.2645 7.96428 46.5611 8.25992 46.8499 8.57199L50.766 6.91248L53.7002 13.4511L49.8012 15.1127C49.8742 15.9258 49.8556 16.7676 49.7458 17.6376C49.6372 18.4973 49.4468 19.3111 49.1739 20.0812L52.5376 22.6591L48.0703 28.2629L44.7067 25.6846C43.3763 26.5731 41.9565 27.152 40.4467 27.4207ZM39.2467 21.4807C39.977 21.3544 40.6619 21.079 41.301 20.6544C41.4032 20.5873 41.4997 20.5195 41.5905 20.4502C42.5102 19.7507 43.1303 18.8755 43.4503 17.8247C43.5478 17.5162 43.6172 17.1971 43.6586 16.869C43.6772 16.7224 43.6894 16.5806 43.695 16.4435C43.7078 16.2496 43.709 16.0542 43.6986 15.858C43.6942 15.8004 43.6906 15.7366 43.6876 15.6673C43.6029 14.6684 43.222 13.742 42.5454 12.8869C42.4747 12.7972 42.3981 12.7075 42.3158 12.6171C41.7922 12.0339 41.1924 11.59 40.5164 11.2868C40.0177 11.0631 39.4741 10.9137 38.8862 10.8395C38.8052 10.8293 38.7189 10.8184 38.6267 10.8068C38.1397 10.7682 37.6627 10.7887 37.196 10.8676C36.4543 10.9918 35.7571 11.2719 35.105 11.7067C35.0144 11.7753 34.9237 11.8439 34.833 11.9131C34.4574 12.1984 34.1305 12.5134 33.8529 12.8576C33.4516 13.3463 33.159 13.901 32.975 14.5208C32.8777 14.8307 32.8074 15.1545 32.7646 15.4936C32.7217 15.8333 32.7044 16.1582 32.7117 16.4689C32.772 17.5677 33.1607 18.5702 33.8781 19.4764C33.9487 19.5661 34.0203 19.6489 34.0923 19.7276C34.1024 19.74 34.1126 19.7524 34.1226 19.7655C34.2971 19.9601 34.4742 20.137 34.6526 20.298C35.0352 20.6101 35.4422 20.8626 35.8747 21.055C36.3834 21.2918 36.9376 21.4474 37.5373 21.5231C38.1367 21.5988 38.7066 21.5851 39.2467 21.4807Z" fill="url(#paint0_linear_4684_874)"/>
<path d="M14.4575 17.1053C14.9392 16.919 15.371 16.6743 15.7468 16.367C16.2517 15.9686 16.66 15.4761 16.9701 14.8951C17.0197 14.8031 17.0659 14.7106 17.1079 14.6177C17.5188 13.7121 17.6353 12.7807 17.4465 11.8378L17.4474 11.8375C17.3945 11.5602 17.3153 11.2875 17.2121 11.0207C17.1679 10.9062 17.1198 10.7959 17.0685 10.6898L17.0682 10.6889C16.9972 10.5337 16.9173 10.3822 16.8278 10.2353L16.8205 10.2245C16.8001 10.1927 16.7775 10.1552 16.7522 10.1128L16.7468 10.1043L16.7411 10.095C16.3171 9.44656 15.7417 8.94145 15.0287 8.57728L14.7154 8.43039C14.6218 8.38988 14.5255 8.35256 14.4269 8.31789C13.7933 8.09084 13.1506 7.99759 12.5037 8.04488C12.0273 8.07968 11.5522 8.18979 11.0806 8.37213L10.8802 8.44961L10.8697 8.45475C10.4865 8.62388 10.1332 8.83487 9.81032 9.08634L9.80906 9.08578C9.28955 9.48935 8.87156 9.99371 8.55449 10.5907L8.54708 10.604L8.54094 10.6179C8.50445 10.6978 8.46748 10.7789 8.43059 10.8606L8.43186 10.8611C8.26479 11.2287 8.14345 11.6025 8.07271 11.9821L8.07398 11.9827C7.96811 12.5278 7.97234 13.0779 8.08654 13.629C8.14009 13.9069 8.21998 14.1826 8.32598 14.4567C8.43018 14.7262 8.5486 14.9776 8.68127 15.2104L8.685 15.2173L8.68964 15.2239C9.12968 15.9424 9.73339 16.4985 10.4898 16.8899L10.824 17.0476C10.9143 17.0867 11.0014 17.1201 11.0854 17.1496L11.1082 17.1597L11.1255 17.1666L11.4339 17.2682C11.5354 17.2988 11.6357 17.3265 11.7349 17.3508L11.7599 17.3558C12.1749 17.4354 12.588 17.4613 12.9982 17.4308L12.9973 17.4312C13.4882 17.4022 13.9755 17.2917 14.4575 17.1053ZM12.0103 4.35641L12.3742 4.33613C12.9966 4.3007 13.62 4.3359 14.2444 4.44222C14.4317 4.47741 14.62 4.51703 14.8092 4.55991C15.1072 4.63573 15.407 4.7238 15.7069 4.82634L16.0397 4.93954L16.2595 4.66605L18.0188 2.47074L21.6421 5.25047L19.906 7.42428L19.6798 7.70858L19.88 8.0123C20.2083 8.50896 20.4898 9.05878 20.7234 9.66294C20.954 10.2592 21.1141 10.8513 21.2056 11.4407L21.2615 11.7992L21.6201 11.8573L24.3675 12.2985L23.5564 16.7919L20.791 16.3472L20.438 16.29L20.2703 16.6061C19.7192 17.6456 19.0055 18.5103 18.1291 19.2057L17.8407 19.4345L18.9564 22.32L14.6245 23.9951L13.5136 21.1223L13.1463 21.147C12.031 21.2221 10.9156 21.0598 9.79651 20.6561L9.45842 20.5345L9.23463 20.8168L7.51403 22.993L3.89233 20.2147L5.61575 18.0458L5.8445 17.7574L5.63782 17.4531C5.55429 17.3304 5.47307 17.2029 5.39468 17.0707L5.16692 16.6604L4.9312 16.1537L4.80194 15.8194C4.56838 15.2153 4.40537 14.6138 4.31079 14.0158L4.25399 13.6577L3.89484 13.6007L1.16792 13.1663L1.97836 8.67424L4.74253 9.11836L5.09425 9.17501L5.26217 8.86193C5.81709 7.82824 6.52823 6.96303 7.39554 6.26125L7.67873 6.03238L6.56895 3.16233L10.9009 1.48726L12.0103 4.35641Z" stroke="black"/>
<path d="M23.5492 40.1861C23.8738 40.0817 24.1762 39.9466 24.4535 39.7793L24.7141 39.6073C25.1825 39.2812 25.5698 38.8662 25.8738 38.3684C25.9221 38.2901 25.9679 38.2108 26.0097 38.1308C26.4173 37.3549 26.5685 36.5394 26.4501 35.6984C26.4176 35.4514 26.3618 35.207 26.2845 34.9669C26.2516 34.8645 26.2152 34.7654 26.1756 34.6696L26.1753 34.6687C26.1479 34.5984 26.1182 34.5289 26.0867 34.4602L25.986 34.2556L25.9805 34.245C25.9648 34.2173 25.947 34.1847 25.9275 34.1472L25.9224 34.1376L25.9175 34.1289C25.5277 33.4502 24.9538 32.9278 24.2172 32.5585C24.1377 32.5184 24.0556 32.4816 23.972 32.4466L23.9717 32.4456C23.4252 32.2131 22.8626 32.098 22.289 32.1068C21.8672 32.1131 21.4432 32.186 21.0196 32.3222L20.8299 32.3832C20.4841 32.5126 20.1626 32.6812 19.8654 32.8864C19.3869 33.2157 18.9922 33.6378 18.6829 34.1469L18.6747 34.1598L18.6678 34.1733C18.6322 34.2408 18.5968 34.31 18.5606 34.3791C18.3952 34.6936 18.2695 35.0166 18.1879 35.3474L18.1891 35.348C18.0675 35.8257 18.0432 36.3137 18.1169 36.8074L18.1181 36.8081C18.1513 37.0527 18.2056 37.2969 18.284 37.5405C18.3617 37.7822 18.4533 38.0091 18.5582 38.2207L18.5615 38.2278L18.5658 38.2347C18.9172 38.8909 19.4217 39.4118 20.0679 39.7949L20.3528 39.9505C20.4251 39.9869 20.4955 40.0175 20.5631 40.046L20.5621 40.0463C20.572 40.0511 20.5757 40.0525 20.5778 40.0536L20.595 40.0624L20.6128 40.07L20.8776 40.1756C20.9652 40.2076 21.0524 40.2357 21.1383 40.262L21.15 40.2665L21.162 40.2688L21.4347 40.3288C21.7056 40.3791 21.9771 40.4026 22.249 40.3982L22.2481 40.3985C22.6822 40.3979 23.1164 40.3253 23.5492 40.1861ZM21.9988 29.0169L22.3629 29.0167C22.8983 29.0172 23.4314 29.0781 23.9617 29.2L23.9607 29.2003C24.1235 29.2407 24.2874 29.2844 24.4513 29.3318C24.7016 29.4113 24.952 29.5018 25.2026 29.6041L25.5283 29.7363L25.7633 29.475L27.3557 27.7092L30.2571 30.2135L28.6886 31.9613L28.4455 32.2324L28.6284 32.5459C28.8855 32.9884 29.0997 33.4752 29.2706 34.0064C29.4392 34.5305 29.5481 35.0475 29.5973 35.558L29.6315 35.9194L29.9871 35.9978L32.2804 36.5034L31.3833 40.2297L29.0718 39.7186L28.7221 39.6423L28.5363 39.9483C28.0111 40.8142 27.355 41.5207 26.5683 42.074L26.2671 42.2858L27.0844 44.8265L23.3714 46.0209L22.5577 43.4913L22.1895 43.4949C21.2287 43.5039 20.2792 43.3099 19.3375 42.9074L19.0066 42.7656L18.7669 43.0345L17.2093 44.7871L14.31 42.2831L15.8673 40.5389L16.1126 40.2651L15.9239 39.9493C15.8584 39.84 15.7951 39.7264 15.7344 39.6091L15.5588 39.245L15.3756 38.7808L15.2868 38.5047C15.116 37.9737 15.0053 37.4485 14.9538 36.9304L14.9187 36.5693L14.5634 36.4918L12.2867 35.9932L13.1832 32.2682L15.4944 32.7783L15.8423 32.8551L16.0286 32.5511C16.557 31.6902 17.2104 30.9829 17.9898 30.4235L18.2858 30.2113L17.4733 27.6855L21.1863 26.4911L21.9988 29.0169Z" stroke="black"/>
<defs>
<linearGradient id="paint0_linear_4684_874" x1="53.1178" y1="18.0633" x2="23.3334" y2="14.3028" gradientUnits="userSpaceOnUse">
<stop stop-color="#16FF00"/>
<stop offset="1" stop-color="#4DFFC9"/>
<stop offset="1" stop-color="#4DFFC9"/>
</linearGradient>
</defs>
</svg>
