<svg width="166" height="166" viewBox="0 0 166 166" fill="none" xmlns="http://www.w3.org/2000/svg">
<g filter="url(#filter0_d_4684_884)">
<rect x="36" y="32" width="94" height="94" rx="47" fill="white"/>
<path d="M60.6357 71.4395L71.7099 77.5151L65.0819 89.6331L60.388 87.0658" stroke="black" stroke-linecap="round"/>
<path d="M67.813 75.3838L61.185 87.5018" stroke="black"/>
<path d="M104.274 71.7001L92.8916 78.6272L100.072 90.4262L104.642 87.6448" stroke="black" stroke-linecap="round"/>
<path d="M103.867 88.1179L96.6867 76.3189" stroke="black"/>
<path d="M85.0156 89.8619L92.4898 96.321C93.2574 96.9844 94.4175 96.8999 95.0808 96.1322V96.1322C95.7263 95.3854 95.6661 94.262 94.9446 93.5884L87.6672 86.7935L85.0244 83.7695" stroke="black" stroke-linecap="round" stroke-linejoin="round"/>
<path d="M81.4842 80.6939C79.1925 79.8962 72.9897 80.1642 71.2892 78.6863" stroke="black" stroke-linecap="round" stroke-linejoin="round"/>
<path d="M85.0156 89.8618L91.8341 95.7543C92.5873 96.4052 92.6702 97.5434 92.0193 98.2965V98.2965C91.3685 99.0497 90.2303 99.1326 89.4771 98.4817L83.3405 93.1785" stroke="black" stroke-linecap="round"/>
<path d="M83.3408 93.1787L88.7956 97.8927C89.5488 98.5436 89.6317 99.6818 88.9808 100.435V100.435C88.33 101.188 87.1918 101.271 86.4386 100.62L81.6657 96.4954" stroke="black" stroke-linecap="round"/>
<path d="M81.6655 96.4951L85.7454 100.021C86.5048 100.677 86.5884 101.825 85.9321 102.584V102.584C85.2835 103.335 84.1529 103.426 83.3918 102.79L81.5002 101.209" stroke="black" stroke-linecap="round"/>
<path d="M99.2683 89.506L95.0923 93.385" stroke="black"/>
<path d="M70.8458 91.3528L66.0182 88.3231" stroke="black"/>
<path d="M89.8922 81.2957L89.8033 81.7877L89.8922 81.2957ZM85.4011 83.9757C85.5336 83.7334 85.4447 83.4296 85.2024 83.297C84.9601 83.1645 84.6563 83.2535 84.5238 83.4958L85.4011 83.9757ZM93.3088 79.7896C92.9547 79.997 92.3472 80.3018 91.6992 80.5283C91.0317 80.7617 90.4076 80.8806 89.981 80.8036L89.8033 81.7877C90.4986 81.9132 91.3314 81.7162 92.0292 81.4723C92.7464 81.2215 93.4126 80.8877 93.8142 80.6525L93.3088 79.7896ZM89.981 80.8036C89.3431 80.6884 88.4577 80.3271 87.5402 79.9572C87.0951 79.7777 86.6475 79.5988 86.2461 79.4628C85.8558 79.3305 85.4594 79.2207 85.1294 79.2086L85.0925 80.2079C85.266 80.2143 85.5436 80.2806 85.9251 80.4098C86.2954 80.5354 86.7172 80.7036 87.1663 80.8846C88.0371 81.2358 89.0389 81.6496 89.8033 81.7877L89.981 80.8036ZM85.1294 79.2086C84.5484 79.1871 83.7789 79.3283 83.0686 79.5363C82.3583 79.7444 81.6342 80.0406 81.1566 80.372L81.7267 81.1936C82.0769 80.9506 82.6839 80.691 83.3497 80.496C84.0154 80.3011 84.6666 80.1922 85.0925 80.2079L85.1294 79.2086ZM81.1566 80.372C80.762 80.6459 80.2142 80.9671 79.6415 81.3026C79.0807 81.6311 78.4949 81.9738 78.0617 82.2744L78.6318 83.096C79.0264 82.8222 79.5742 82.5009 80.1469 82.1655C80.7078 81.8369 81.2935 81.4942 81.7267 81.1936L81.1566 80.372ZM78.0617 82.2744C77.8179 82.4436 77.5768 82.6643 77.3969 82.9176C77.2215 83.1645 77.069 83.4938 77.1012 83.8608C77.136 84.2573 77.3741 84.5781 77.7413 84.8012C78.0931 85.0149 78.5845 85.1559 79.2195 85.2325L79.3393 84.2397C78.7698 84.171 78.4388 84.0548 78.2605 83.9465C78.0977 83.8476 78.0981 83.7815 78.0974 83.7734C78.0941 83.7359 78.1084 83.6428 78.2121 83.4967C78.3114 83.3569 78.4618 83.214 78.6318 83.096L78.0617 82.2744ZM79.2195 85.2325C80.4985 85.3867 81.9249 85.2256 83.0492 84.9817C83.6138 84.8592 84.1166 84.7128 84.4999 84.5669C84.6904 84.4944 84.8624 84.4179 85.0014 84.3392C85.0708 84.2998 85.1409 84.255 85.2039 84.204C85.2614 84.1575 85.3427 84.0825 85.4011 83.9757L84.5238 83.4958C84.5552 83.4384 84.5873 83.4166 84.575 83.4266C84.5683 83.432 84.5481 83.4466 84.5085 83.4691C84.4295 83.5138 84.3084 83.5699 84.1442 83.6324C83.8181 83.7565 83.3653 83.8899 82.8373 84.0044C81.7764 84.2345 80.4693 84.3759 79.3393 84.2397L79.2195 85.2325Z" fill="black"/>
<circle cx="83" cy="64" r="11" fill="url(#paint0_linear_4684_884)"/>
<path d="M81.4819 68.0559C81.4819 68.3287 81.703 68.5498 81.9758 68.5498C82.2486 68.5498 82.4698 68.3287 82.4698 68.0558V66.8645H84.8718C85.182 66.8645 85.4335 66.613 85.4335 66.3028C85.4335 65.9925 85.182 65.741 84.8718 65.741H82.4698V64.6175H84.6926C86.0544 64.6175 87.1624 63.3575 87.1624 61.8088C87.1624 60.26 86.0544 59 84.6926 59H81.9758C81.8448 59 81.7192 59.0592 81.6265 59.1645C81.5339 59.2699 81.4819 59.4128 81.4819 59.5618V63.494H80.5618C80.2515 63.494 80 63.7455 80 64.0558C80 64.366 80.2515 64.6175 80.5618 64.6175H81.4819V65.741H80.5618C80.2515 65.741 80 65.9925 80 66.3028C80 66.613 80.2515 66.8645 80.5618 66.8645H81.4819V68.0559ZM82.4698 60.1235H84.6926C85.5096 60.1235 86.1744 60.8796 86.1744 61.8088C86.1744 62.7379 85.5096 63.494 84.6926 63.494H82.4698V60.1235Z" fill="black"/>
<path fill-rule="evenodd" clip-rule="evenodd" d="M71.9411 94.1582L74.2285 92.0019C74.5841 91.5228 74.5565 90.8435 74.1329 90.3942C73.6575 89.8898 72.8632 89.8664 72.3589 90.3418L70.3942 92.1938C69.8898 92.6692 69.8664 93.4635 70.3418 93.9679C70.7653 94.4171 71.4418 94.4848 71.9411 94.1582ZM70.9778 95.345C70.4745 95.2829 69.9891 95.0516 69.6141 94.6538C68.7599 93.7475 68.802 92.3204 69.7082 91.4661L71.6729 89.6141C72.5792 88.7599 74.0064 88.802 74.8606 89.7082C75.2161 90.0854 75.4164 90.5528 75.4637 91.0315C76.3066 90.6758 77.3175 90.8579 77.9819 91.5627C78.4682 92.0786 78.664 92.7632 78.5754 93.4148C79.2313 93.3646 79.9033 93.6005 80.3897 94.1164C81.1561 94.9296 81.201 96.1621 80.5474 97.0239C81.0326 97.0948 81.4982 97.3237 81.8606 97.7082C82.7149 98.6145 82.6727 100.042 81.7665 100.896L79.8018 102.748C78.8955 103.602 77.4684 103.56 76.6141 102.654C76.1626 102.175 75.9615 101.55 76.0061 100.942C75.2448 101.126 74.409 100.907 73.8334 100.297C73.3471 99.7808 73.1513 99.0962 73.2399 98.4446C72.584 98.4948 71.912 98.2589 71.4256 97.7429C70.8004 97.0797 70.6554 96.1375 70.9778 95.345ZM77.2159 94.0093C77.2112 94.0136 77.2066 94.018 77.202 94.0223L73.9275 97.109C73.9228 97.1134 73.9181 97.1179 73.9134 97.1224C73.4084 97.5844 72.6244 97.5567 72.1533 97.057C71.6779 96.5527 71.7013 95.7584 72.2057 95.283L72.5714 94.9382C72.6512 94.8807 72.7282 94.8172 72.8018 94.7479L74.7665 92.8959C74.84 92.8266 74.9079 92.7535 74.97 92.6772L75.4802 92.1963C75.9846 91.7208 76.7788 91.7443 77.2543 92.2487C77.7253 92.7483 77.7066 93.5325 77.2159 94.0093ZM74.5994 97.85C74.1087 98.3269 74.09 99.1111 74.561 99.6107C75.0364 100.115 75.8307 100.139 76.3351 99.6631L79.6096 96.5764C80.114 96.101 80.1374 95.3067 79.662 94.8024C79.1909 94.3026 78.4069 94.275 77.9019 94.737C77.8972 94.7415 77.8925 94.7459 77.8878 94.7504L74.6133 97.8371C74.6087 97.8414 74.6041 97.8457 74.5994 97.85ZM79.1158 102.02L81.0806 100.168C81.5849 99.6928 81.6084 98.8985 81.1329 98.3942C80.6575 97.8898 79.8632 97.8664 79.3589 98.3418L77.3942 100.194C76.8898 100.669 76.8664 101.463 77.3418 101.968C77.8172 102.472 78.6115 102.496 79.1158 102.02Z" fill="black"/>
</g>
<defs>
<filter id="filter0_d_4684_884" x="0" y="0" width="166" height="166" filterUnits="userSpaceOnUse" color-interpolation-filters="sRGB">
<feFlood flood-opacity="0" result="BackgroundImageFix"/>
<feColorMatrix in="SourceAlpha" type="matrix" values="0 0 0 0 0 0 0 0 0 0 0 0 0 0 0 0 0 0 127 0" result="hardAlpha"/>
<feOffset dy="4"/>
<feGaussianBlur stdDeviation="18"/>
<feColorMatrix type="matrix" values="0 0 0 0 0 0 0 0 0 0 0 0 0 0 0 0 0 0 0.08 0"/>
<feBlend mode="normal" in2="BackgroundImageFix" result="effect1_dropShadow_4684_884"/>
<feBlend mode="normal" in="SourceGraphic" in2="effect1_dropShadow_4684_884" result="shape"/>
</filter>
<linearGradient id="paint0_linear_4684_884" x1="72" y1="64" x2="93.9796" y2="64" gradientUnits="userSpaceOnUse">
<stop stop-color="#16FF00"/>
<stop offset="1" stop-color="#4DFFC9"/>
<stop offset="1" stop-color="#4DFFC9"/>
</linearGradient>
</defs>
</svg>
