<svg width="172" height="172" viewBox="0 0 172 172" fill="none" xmlns="http://www.w3.org/2000/svg">
<g filter="url(#filter0_d_717_12600)">
<rect x="36" y="32" width="100" height="100" rx="50" fill="white"/>
<path d="M56.8996 63H71.919L77.5512 74.2645L71.919 100.548H56.8996L62.5319 74.2645L56.8996 63Z" fill="#D9D9D9"/>
<path d="M56.8996 63H71.919L77.5512 74.2645L71.919 100.548L56.8996 63Z" fill="#ADAFB2"/>
<path d="M75.6741 63H90.6934L96.3257 74.2645L90.6934 100.548H75.6741L81.3063 74.2645L75.6741 63Z" fill="#75BEE9"/>
<path d="M94.4485 63H109.468L115.1 74.2645L109.468 100.548H94.4485L100.081 74.2645L94.4485 63Z" fill="#F37164"/>
<path d="M75.6741 63H90.6934L96.3257 74.2645L90.6934 100.548L75.6741 63Z" fill="#0072BC"/>
<path d="M94.4485 63H109.468L115.1 74.2645L109.468 100.548L94.4485 63Z" fill="#ED1B35"/>
</g>
<defs>
<filter id="filter0_d_717_12600" x="0" y="0" width="172" height="172" filterUnits="userSpaceOnUse" color-interpolation-filters="sRGB">
<feFlood flood-opacity="0" result="BackgroundImageFix"/>
<feColorMatrix in="SourceAlpha" type="matrix" values="0 0 0 0 0 0 0 0 0 0 0 0 0 0 0 0 0 0 127 0" result="hardAlpha"/>
<feOffset dy="4"/>
<feGaussianBlur stdDeviation="18"/>
<feColorMatrix type="matrix" values="0 0 0 0 0 0 0 0 0 0 0 0 0 0 0 0 0 0 0.08 0"/>
<feBlend mode="normal" in2="BackgroundImageFix" result="effect1_dropShadow_717_12600"/>
<feBlend mode="normal" in="SourceGraphic" in2="effect1_dropShadow_717_12600" result="shape"/>
</filter>
</defs>
</svg>
