<svg width="70" height="70" viewBox="0 0 70 70" fill="none" xmlns="http://www.w3.org/2000/svg">
<path d="M22.5781 7.69238H41.5166C43.6651 7.69264 45.4072 9.43443 45.4072 11.583V59.8809C45.4071 62.0293 43.665 63.7712 41.5166 63.7715H6.39062C4.24199 63.7715 2.50017 62.0295 2.5 59.8809V24.6572L2.50586 24.4375C2.56768 23.3441 3.08901 22.3233 3.94629 21.6309L20.1338 8.55664C20.8259 7.99768 21.6885 7.69238 22.5781 7.69238Z" stroke="#111111"/>
<path d="M10.7813 32.8047H37.1254" stroke="#111111"/>
<path d="M10.7813 38.6589H37.1254" stroke="#111111"/>
<path d="M10.7813 44.5132H25.4169" stroke="#111111"/>
<path d="M2.73175 24.0234H15.9038C19.137 24.0234 21.758 21.4024 21.758 18.1691V8.65601" stroke="#111111"/>
<path d="M31.9661 55.8019L40.2452 53.7322L34.0359 47.5228L31.9661 55.8019Z" fill="url(#paint0_linear_717_12443)"/>
<path d="M58.3558 36.6564L42.8324 52.1798L35.5882 44.9356L51.1116 29.4122L58.3558 36.6564Z" fill="url(#paint1_linear_717_12443)"/>
<path d="M63.0129 31.9994L60.4256 34.5866L53.1814 27.3424L55.7686 24.7551L63.0129 31.9994Z" fill="url(#paint2_linear_717_12443)"/>
<defs>
<linearGradient id="paint0_linear_717_12443" x1="49.3005" y1="45.7117" x2="42.063" y2="38.4742" gradientUnits="userSpaceOnUse">
<stop stop-color="#16FF00"/>
<stop offset="1" stop-color="#4DFFC9"/>
<stop offset="1" stop-color="#4DFFC9"/>
</linearGradient>
<linearGradient id="paint1_linear_717_12443" x1="49.3005" y1="45.7117" x2="42.063" y2="38.4742" gradientUnits="userSpaceOnUse">
<stop stop-color="#16FF00"/>
<stop offset="1" stop-color="#4DFFC9"/>
<stop offset="1" stop-color="#4DFFC9"/>
</linearGradient>
<linearGradient id="paint2_linear_717_12443" x1="49.3005" y1="45.7117" x2="42.063" y2="38.4742" gradientUnits="userSpaceOnUse">
<stop stop-color="#16FF00"/>
<stop offset="1" stop-color="#4DFFC9"/>
<stop offset="1" stop-color="#4DFFC9"/>
</linearGradient>
</defs>
</svg>
