<svg width="60" height="60" viewBox="0 0 60 60" fill="none" xmlns="http://www.w3.org/2000/svg">
<circle cx="30" cy="30" r="30" fill="#16FF00"/>
<path d="M20.1816 34.8059H24.5016C24.6696 35.5499 24.9936 36.2099 25.4736 36.7859C26.5536 38.1059 28.0896 38.7659 30.0816 38.7659C31.7376 38.7659 33.0456 38.3579 34.0056 37.5419C34.9896 36.7019 35.4816 35.6699 35.4816 34.4459C35.4816 33.0539 35.0376 31.9619 34.1496 31.1699C33.2856 30.3539 32.0496 29.9459 30.4416 29.9459H24.3216V26.3459L31.8816 20.9459V20.7659H21.4416V16.8059H38.0016V20.7299L31.5216 25.4459L29.7216 26.1659V26.3459L30.2976 26.2739C31.0896 26.2019 31.5576 26.1659 31.7016 26.1659C33.9576 26.1659 35.8416 26.9459 37.3536 28.5059C38.8656 30.0659 39.6216 32.0459 39.6216 34.4459C39.6216 36.7499 38.7336 38.7059 36.9576 40.3139C35.1816 41.9219 32.8896 42.7259 30.0816 42.7259C26.3616 42.7259 23.6136 41.4059 21.8376 38.7659C21.0696 37.6379 20.5176 36.3179 20.1816 34.8059Z" fill="black"/>
</svg>
