<svg width="60" height="60" viewBox="0 0 60 60" fill="none" xmlns="http://www.w3.org/2000/svg">
<circle cx="30" cy="30" r="30" fill="#16FF00"/>
<path d="M20.7265 42.0059V38.0459L29.3305 31.9619C31.2025 30.6179 32.5465 29.3699 33.3625 28.2179C34.1785 27.0659 34.5865 25.8419 34.5865 24.5459C34.5865 23.1779 34.1665 22.0859 33.3265 21.2699C32.4865 20.4539 31.3465 20.0459 29.9065 20.0459C28.1305 20.0459 26.7985 20.7659 25.9105 22.2059C25.5265 22.8299 25.2385 23.5499 25.0465 24.3659H20.7265C20.9425 22.8299 21.4105 21.4499 22.1305 20.2259C23.8345 17.4659 26.4265 16.0859 29.9065 16.0859C32.5705 16.0859 34.7305 16.8779 36.3865 18.4619C38.0665 20.0219 38.9065 21.9899 38.9065 24.3659C38.9065 26.4299 38.3785 28.2899 37.3225 29.9459C36.2665 31.5779 34.5745 33.1979 32.2465 34.8059L28.6465 37.3259L27.0265 38.0459V38.2259L29.1865 38.0459H38.9065V42.0059H20.7265Z" fill="black"/>
</svg>
